<?xml version="1.0" encoding="UTF-8" standalone="no"?>
<svg
   xmlns:dc="http://purl.org/dc/elements/1.1/"
   xmlns:cc="http://creativecommons.org/ns#"
   xmlns:rdf="http://www.w3.org/1999/02/22-rdf-syntax-ns#"
   xmlns:svg="http://www.w3.org/2000/svg"
   xmlns="http://www.w3.org/2000/svg"
   id="svg8"
   version="1.1"
   viewBox="0 0 15.101333 5.3174114"
   height="5.3174114mm"
   width="15.101333mm">
  <defs
     id="defs2">
    <rect
       id="rect842"
       height="102.05357"
       width="120.95238"
       y="60.476189"
       x="34.773811" />
    <rect
       id="rect835"
       height="86.178574"
       width="163.28571"
       y="89.958336"
       x="27.214287" />
  </defs>
  <metadata
     id="metadata5">
    <rdf:RDF>
      <cc:Work
         rdf:about="">
        <dc:format>image/svg+xml</dc:format>
        <dc:type
           rdf:resource="http://purl.org/dc/dcmitype/StillImage" />
        <dc:title></dc:title>
      </cc:Work>
    </rdf:RDF>
  </metadata>
  <g
     transform="translate(-32.256339,-61.64913)"
     id="layer1">
    <g
       style="font-size:4.23333px;line-height:1.25;font-family:'Courier New';-inkscape-font-specification:'Courier New';white-space:pre;shape-inside:url(#rect835)"
       id="text833" />
    <text
       style="font-size:4.23333px;line-height:1.25;font-family:'Courier New';-inkscape-font-specification:'Courier New';white-space:pre;shape-inside:url(#rect842);"
       id="text840"
       xml:space="preserve"><tspan
         x="34.773438"
         y="64.243284"><tspan>rafty</tspan></tspan></text>
    <g
       transform="matrix(1.1036589,0,0,1.0632479,-0.55595585,-1.4646842)"
       style="font-size:4.23333px;line-height:1.25;font-family:'Courier New';-inkscape-font-specification:'Courier New';stroke-width:0.264583"
       id="text848"
       aria-label="D">
      <path
         id="path850"
         style="stroke-width:0.264583"
         d="m 30.389663,62.367436 v -2.071189 h -0.146761 q -0.06201,0 -0.08888,-0.02274 -0.02687,-0.02481 -0.02687,-0.06408 0,-0.03927 0.02687,-0.06201 0.02687,-0.02481 0.08888,-0.02481 h 0.934309 q 0.219108,0 0.398942,0.09095 0.181901,0.09095 0.276986,0.206706 0.163297,0.19637 0.248046,0.415478 0.05994,0.159163 0.05994,0.376204 v 0.239779 q 0,0.26665 -0.117822,0.516764 -0.117823,0.250113 -0.392741,0.436148 -0.204638,0.136426 -0.473356,0.136426 h -0.934309 q -0.06201,0 -0.08888,-0.02481 -0.02687,-0.0248 -0.02687,-0.06201 0,-0.03927 0.02687,-0.06201 0.02687,-0.02481 0.08888,-0.02481 z m 0.173633,0 h 0.630452 q 0.219108,0 0.409277,-0.142626 0.192236,-0.142627 0.287321,-0.341065 0.09715,-0.200504 0.09715,-0.394807 v -0.314193 q 0,-0.16123 -0.05168,-0.28732 -0.07441,-0.183968 -0.21084,-0.349333 -0.07441,-0.09095 -0.219108,-0.165364 -0.144694,-0.07648 -0.312125,-0.07648 h -0.630452 z" />
    </g>
    <path
       d="m 41.91991,64.593545 a 8.231901,3.3208237 0.2 0 0 -1.692884,-0.07728 8.231901,3.3208237 0.2 0 0 -7.970687,2.450276 3.8491435,9.3818264 89.866337 0 1 8.454468,-2.172745 3.8491435,9.3818264 89.866337 0 1 5.027249,0.597099 8.231901,3.3208237 0.2 0 0 -3.818145,-0.797364 z"
       style="fill:#000000;fill-opacity:1;stroke:none;stroke-width:0.1;stroke-linejoin:round;stroke-miterlimit:4;stroke-dasharray:none"
       id="path877" />
  </g>
</svg>
